PathFileType	4	(X/Y/Z)	65_1_tpose_p1_0-209.trc
DataRate	CameraRate	NumFrames	NumMarkers	Units	OrigDataRate	OrigDataStartFrame	OrigNumFrames
51.0	51.0	7	27	m	51.0	26	210
Frame#	Time	RHip			RKnee			RAnkle			RBigToe			RSmallToe			RHeel			LHip			LKnee			LAnkle			LBigToe			LSmallToe			LHeel			Neck			Head			Nose			RShoulder			RElbow			RWrist			RThumb			RIndex			RPinky			LShoulder			LElbow			LWrist			LThumb			LIndex			LPinky			
		X1	Y1	Z1	X2	Y2	Z2	X3	Y3	Z3	X4	Y4	Z4	X5	Y5	Z5	X6	Y6	Z6	X7	Y7	Z7	X8	Y8	Z8	X9	Y9	Z9	X10	Y10	Z10	X11	Y11	Z11	X12	Y12	Z12	X13	Y13	Z13	X14	Y14	Z14	X15	Y15	Z15	X16	Y16	Z16	X17	Y17	Z17	X18	Y18	Z18	X19	Y19	Z19	X20	Y20	Z20	X21	Y21	Z21	X22	Y22	Z22	X23	Y23	Z23	X24	Y24	Z24	X25	Y25	Z25	X26	Y26	Z26	X27	Y27	Z27	
26	0.5098039215686274	0.418882626775887	0.640663289136095	0.28685016898929194	0.38591069902699277	0.8924310725644757	0.7206349755065536	0.321821369675509	1.0517502555707186	1.1259156909226045	0.2708600594327984	0.8019783020156794	1.2048572521451044	0.35683753907180954	0.8223433152189285	1.2009776155337297	0.28155402326889345	1.1593686246264183	1.1881214549419057	0.18021200866945175	0.7320656738352138	0.2627947955232777	0.14655438289079728	0.877489568481342	0.6860124970891857	0.11915711430720305	1.016988407727993	1.092597947175995	0.11861037212607026	0.8093798758421015	1.1656731937772518	0.0586851261520858	0.8843249954152975	1.1612918528476137	0.14047743099490434	1.102144633723728	1.1392523977413922	0.3898340464351531	0.4794076030159264	-0.38209258091439374	0.41878640124932376	0.36665347807058124	-0.6226830086623657	0.39800302940668336	0.302552788884523	-0.44382267584276835	0.5563339509890807	0.5123734452413026	-0.29122103695416807	0.8499144161120347	0.5136160756459692	-0.25097073157561633	1.1222140277771673	0.4975937561932623	-0.19223863864578025	1.2505364280131273	0.43917765049758245	-0.14868833831801137	1.267012177905586	0.43231841418719824	-0.16772424148565254	1.2337444725876976	0.46325628118584855	-0.17559847505301393	0.1967992950224346	0.4952288067178608	-0.33975785276053105	-0.08102024025432748	0.5762777034447958	-0.40971671197036114	-0.38341950757688653	0.605536201010445	-0.42986146521427626	-0.46530599136032474	0.5703577639159157	-0.4011923611323007	-0.5152336989074199	0.6196466592957679	-0.46575239374601013	-0.5211264364286425	0.6389725289131675	-0.46951193165804056
27	0.5294117647058824	0.4152306255321695	0.655579599261105	0.2867265923649846	0.3860566446917294	0.8920748863762281	0.7205778653478864	0.32642429686880087	1.034587077522624	1.1173264632165198	0.2692645252191384	0.8042419962786422	1.2090998975129654	0.35545083725334964	0.8241314051763559	1.2050539514002812	0.28173847750874953	1.160491475850993	1.1841191091059013	0.18023550217585346	0.7321321014904684	0.262889060089217	0.14655905932143207	0.8772281654781475	0.6859013876216522	0.12507719716480828	1.0162769768721123	1.0886408500803273	0.11852687153679435	0.8095281296690989	1.165704197425395	0.0585998935271813	0.8846123701223251	1.1613482701287132	0.1422422124781765	1.1001166649344067	1.1342686624144338	0.38984478079287005	0.47944950777828427	-0.38209484585988746	0.4187693509234385	0.3666218763758767	-0.6226640692323404	0.3979968978387095	0.3024398495447695	-0.44378350857095933	0.5605363879018715	0.5247531750024977	-0.29331724529805875	0.8499695021695287	0.5133030921334562	-0.25101175501985484	1.1222235635697384	0.4971685058170824	-0.19221813386411943	1.2504769214227502	0.4389348641087162	-0.14889114522693825	1.2698658764268256	0.43223060575555267	-0.16763070958634924	1.2367565982240574	0.4636927166070584	-0.17152434037387235	0.19681410569209487	0.49545287733667703	-0.33980604933156194	-0.08489316200137002	0.5753625264536635	-0.40638406705871755	-0.38057403608660145	0.6085323079831911	-0.4272651418575508	-0.4691191060765816	0.5676677005438218	-0.4008494741052402	-0.5162153092726959	0.6204721177268595	-0.45941298244788153	-0.5211327479779264	0.6383250515048466	-0.4691455589967698
28	0.5490196078431373	0.41893480077084433	0.640719476364598	0.2867976821195146	0.38710017419993614	0.8904987890438549	0.7161475238551545	0.32638178737723067	1.0344104515468882	1.1170670717385585	0.2740206965018374	0.8174037635908643	1.2095592413454095	0.35688177187666664	0.8220400470106632	1.2010752591762945	0.28168917171005964	1.1604656146320511	1.1840187712643477	0.1801900505402145	0.7298334695412485	0.2587832070979788	0.14661963041340834	0.8778821608108365	0.6822680842151735	0.12502995685087415	1.0163900190234456	1.0886271203856892	0.11854218013808276	0.8092851673325594	1.1656750673890257	0.05864974961156076	0.884268833474769	1.1612834619202508	0.14208984518312476	1.100516709735025	1.1343035244107649	0.389897314679663	0.47940308688961913	-0.38209099076251163	0.4187593979385645	0.3665841079473601	-0.6226172858301664	0.3979952214750088	0.30231294959824917	-0.44376327026847684	0.5605967349146707	0.5245157682764398	-0.29324346943219604	0.8515369981484318	0.4990075941371535	-0.24824846914336643	1.1280005573907694	0.4932197060018315	-0.19489494189186338	1.2499393474508786	0.4246436809907898	-0.1472112961789603	1.2698530402657153	0.4323140681277396	-0.16773018895795042	1.2367216508102754	0.4779386295187193	-0.17813650567584569	0.19950991321358313	0.5077916032328654	-0.34201177933318816	-0.08121110236344288	0.5768179906918409	-0.40628772729285184	-0.38455072557018	0.6070614035172146	-0.4231658165446125	-0.4696821093160702	0.5679654087853815	-0.40085428060505235	-0.5226970655406947	0.6304624049796467	-0.4692068907024727	-0.520988848991018	0.6380675744119267	-0.4687137890659945
29	0.5686274509803921	0.42298767327707876	0.6394147915852988	0.2832693011770612	0.38602047340356715	0.8922191655671169	0.7206095315751482	0.32414583731462376	1.0157920471044892	1.108369666463809	0.27066170375842646	0.7999549242330568	1.2000707277807166	0.3536033113562743	0.8074683146590971	1.196586160536738	0.2817120160096915	1.1604544757151707	1.1840297222715892	0.18016240296878722	0.7295350784865519	0.25869306662321706	0.14647235047904475	0.8773148724596682	0.685937026090624	0.12072119705107334	1.014835725274549	1.0879333462478913	0.11856499320566415	0.809233198254732	1.1655554147846783	0.058804628052108766	0.8838324343119287	1.161039377445064	0.14200710946199535	1.1011814453959563	1.1343974873091958	0.38992480302349003	0.4793765717066391	-0.38210189972038794	0.41881021955632425	0.36670984626671677	-0.6226763602719434	0.39813736400750227	0.3023920288899328	-0.44380879345503044	0.5635698717632303	0.5109987826023423	-0.29047430160897014	0.8419091151139465	0.4848918961044143	-0.2504345884817607	1.1161780651481301	0.47041394266482384	-0.19204245083920324	1.2404958110038387	0.4303277184580646	-0.14824199416078837	1.2609227418967253	0.4210206939368158	-0.16664589736902333	1.2322089497984514	0.4365649205824956	-0.17753152345015447	0.19925148824898292	0.5096573781765484	-0.3388069694072396	-0.08100648635689	0.5765867438037714	-0.4060966506485909	-0.3922126000374621	0.622001016979837	-0.4186847004928009	-0.4703764647357136	0.5704034406125558	-0.39723521617139873	-0.5240196552353235	0.6330753067490054	-0.4631656773473865	-0.5249805726359364	0.639534563217855	-0.4611047860005116
30	0.5882352941176471	0.41866174712303117	0.6381756672212715	0.2829691222260375	0.38599198849064065	0.89212461439561	0.7205371291030362	0.32412350263162426	1.0158301665488934	1.1083386905637014	0.2710656893865256	0.8027111860594265	1.204910408280256	0.34967075243013274	0.8247948424386776	1.1971664368117203	0.2817076083260316	1.1602575531073835	1.183929615681975	0.18183092633287987	0.7008108152161814	0.25872900878566196	0.14659112406085736	0.877871302550529	0.6823998653832121	0.12075946292452656	1.0146675289271914	1.087895115162563	0.1185901780771444	0.8093308965261787	1.1655458363284887	0.05886009025924613	0.8838036482189954	1.1609930442685483	0.14222116665679058	1.0994078359422323	1.1340136676861179	0.38991732973477383	0.4793570998855704	-0.3820990124226148	0.41883938453359243	0.3667061287115011	-0.6226417660616416	0.4012215330336016	0.31337831105430486	-0.4464199275880453	0.563604701090055	0.5110163401972642	-0.29048697345252616	0.8422023811953804	0.483835519224545	-0.2538676670085898	1.1160598235011472	0.46992248148831084	-0.19202754859810864	1.2307835413325197	0.42092977651916613	-0.14685305091606835	1.2609037234862241	0.42039309785289414	-0.1692448072410822	1.2315134161687529	0.4218795713000371	-0.17501795428263833	0.19663331974420897	0.49728617278180703	-0.3365522622131636	-0.08107273373783783	0.5767775608918148	-0.4061196955607698	-0.39216544601780884	0.6216999194369133	-0.4187720453546056	-0.4708809240704568	0.5725218485384871	-0.39365725542200913	-0.523316854481774	0.6319676889569272	-0.46226783578260283	-0.5221912663643848	0.6424617164407168	-0.4572701801593537
31	0.6078431372549019	0.41515632013963105	0.6535813317546425	0.27901914775480363	0.3871880417542376	0.8906485826773559	0.7162390513970419	0.32321840389898115	1.0497221552758926	1.1214318459889911	0.2740003326095337	0.8169635115728553	1.2094433179157882	0.3528368246164928	0.8393957103074304	1.2016322713635115	0.2831104692167378	1.1570349964523936	1.1835129589069155	0.18184045895226916	0.7005959686232696	0.25865621612827017	0.14667438650100045	0.8775829521690309	0.6822171200700492	0.12078564727779506	1.0144828022269305	1.0878622428440294	0.11854400917809232	0.8091327611062592	1.1654607101242958	0.05875119142362675	0.8837268783945547	1.1609659537025285	0.14190964889617352	1.0993982404733795	1.1340169042142485	0.3899492375575802	0.4793768364959685	-0.382069780725799	0.4188367552485594	0.3666969885247576	-0.6226340510112321	0.40122739491366	0.31327664767686486	-0.44637854266969806	0.5637104248553549	0.5110154443066293	-0.2904274643778051	0.8477023968174756	0.4955229075203862	-0.25588372008691224	1.1160845825633996	0.4554670141933807	-0.18949053912040958	1.248057182981122	0.4168193188140824	-0.15172500895609986	1.267033408190474	0.42891455777399207	-0.17348654861578713	1.237456223773121	0.43115410371069557	-0.1765294081192734	0.19652045523340503	0.4967773122446637	-0.336387355687902	-0.08102803334941233	0.5769824243093475	-0.4061702162599337	-0.3845348491566947	0.6069884695604975	-0.4230799154581595	-0.4711694106072748	0.5728092205850916	-0.3936489484441005	-0.5226730330355529	0.6316759569607454	-0.46946718295872636	-0.5207305572483792	0.6399509881713633	-0.46859714923720125
32	0.6274509803921569	0.4188148368277272	0.6384634634876998	0.2791416977872878	0.3870496966716378	0.8905788361143369	0.7159948585093497	0.32771432919671384	1.031240079745871	1.1168313718863272	0.2739029824189999	0.8164437141707594	1.2094626305512957	0.35281365316771773	0.8387315512537378	1.2016918425362932	0.2870773777014135	1.175502724660042	1.1884246747027507	0.181812254120841	0.7006128012574719	0.25863296642748684	0.1465767084411793	0.8771202608360738	0.6859603250231594	0.12073616515802751	1.014829393170572	1.0879833828399046	0.11860416718520676	0.8092842680373245	1.1655411603183068	0.05884230073266782	0.8838321989867568	1.1610401123553475	0.1416775186685747	1.096230221362751	1.1293871665687873	0.3899736770834193	0.4792742016366	-0.38208241776992585	0.41881938343614683	0.36668918449129084	-0.622579553248674	0.40156040049501934	0.3124652941630009	-0.4490056393129707	0.5636739682510221	0.5108527873159263	-0.2904370599276507	0.8477047631475878	0.4952187182597043	-0.2592698321855694	1.1160197221580939	0.45532041434971743	-0.18948765549746655	1.248027324203997	0.4163354026377793	-0.15491388356326466	1.2603436651760112	0.41906322793538914	-0.17248543385622767	1.2375218155427106	0.43132879035533317	-0.17653895783703416	0.1965739544700407	0.4967248512883963	-0.3363541747068183	-0.08116188273153374	0.576592633140318	-0.4064408775871979	-0.3840898100638337	0.6065620929117902	-0.4266919845027477	-0.4767531874258848	0.5822756377099262	-0.4005875576820854	-0.5153407988520613	0.6193547472065996	-0.4697207358593829	-0.5233250961239462	0.6358865907477349	-0.46792077236919205
